<svg width="81" height="89" viewBox="0 0 81 89" fill="none" xmlns="http://www.w3.org/2000/svg">
<g filter="url(#filter0_d_7_15)">
<path fill-rule="evenodd" clip-rule="evenodd" d="M48.1161 81.7065L48.0476 81.8627C46.9093 84.4838 45.8068 85.1764 44.8457 84.9642C43.6126 84.6906 42.8972 83.7353 42.4751 82.5344C42.1038 81.4753 41.5412 76.1209 41.327 73.9558C41.2717 73.2054 40.9584 68.8235 40.9022 68.0343C40.8452 67.2722 40.4143 62.7423 40.3493 61.9784C40.258 61.1793 39.3548 57.4864 39.2451 56.7252C39.0713 56.0209 38.8809 55.3626 38.672 54.764C37.7556 52.1347 35.2112 49.1488 33.0933 52.5862C31.2773 55.5288 30.0529 62.6972 29.4877 74.4325C29.2358 79.6586 23.7246 82.5995 21.54 75.339C18.1134 63.9513 17.8466 60.6619 16.2746 48.4173C11.7554 41.7492 9.58308 29.8387 8.82997 25.0126C3.69799 16.4898 1.88026 11.4705 0.251221 4.84032C15.9788 33.6644 37.9443 51.6236 70 62.326C63.016 61.8484 57.3399 60.4055 52.6433 59.1414C52.4677 59.9387 52.0192 62.7513 51.8375 63.9576C48.4672 62.792 42.8911 60.4949 39.2451 56.7252C41.4736 60.8868 49.0833 65.6732 51.4426 66.5679C51.3109 67.4285 51.1758 68.2962 51.0371 69.1611C47.0725 67.8303 42.9218 65.1811 40.3493 61.9784C41.9985 65.5838 47.0199 70.3043 50.6009 71.7697C50.4508 72.6284 50.2954 73.4717 50.134 74.2925C46.7434 73.1141 43.4721 70.8479 40.9022 68.0343C41.8764 70.0198 44.406 73.6478 49.5854 76.8694C49.3887 77.7156 49.1825 78.5156 48.9675 79.2559C46.2036 78.1562 43.4757 76.3214 41.327 73.9558C42.4303 76.4063 44.2165 78.865 48.1161 81.7065Z" fill="#5A5A5A"/>
<path fill-rule="evenodd" clip-rule="evenodd" d="M10.9354 17.5436C16.5471 25.387 30.4002 28.9712 41.5831 22.7002C58.8472 13.0201 57.0916 31.1831 53.1361 39.0538C51.1867 42.9316 51.8742 46.7605 54.0557 47.5475C54.0557 47.5475 59.6135 37.9213 60.5519 28.3001C61.1417 22.2501 59.6658 17.2883 56.5984 14.3745C54.2121 12.1088 49.8647 10.9177 45.9017 11.601C37.1753 13.104 35.7658 21.7999 24.4079 19.9722C29.8739 20.1105 32.5271 17.873 34.6103 15.3335C24.9165 16.6759 17.1089 4.83713 10.9354 17.5436Z" fill="#F3F3F3"/>
</g>
<defs>
<filter id="filter0_d_7_15" x="0.251221" y="0.840317" width="80.7488" height="88.1597" filterUnits="userSpaceOnUse" color-interpolation-filters="sRGB">
<feFlood flood-opacity="0" result="BackgroundImageFix"/>
<feColorMatrix in="SourceAlpha" type="matrix" values="0 0 0 0 0 0 0 0 0 0 0 0 0 0 0 0 0 0 127 0" result="hardAlpha"/>
<feOffset dx="7"/>
<feGaussianBlur stdDeviation="2"/>
<feComposite in2="hardAlpha" operator="out"/>
<feColorMatrix type="matrix" values="0 0 0 0 0 0 0 0 0 0 0 0 0 0 0 0 0 0 0.25 0"/>
<feBlend mode="normal" in2="BackgroundImageFix" result="effect1_dropShadow_7_15"/>
<feBlend mode="normal" in="SourceGraphic" in2="effect1_dropShadow_7_15" result="shape"/>
</filter>
</defs>
</svg>
